<svg xmlns="http://www.w3.org/2000/svg" viewBox="0 0 100 100" role="img" aria-label="VK">
  <rect width="100" height="100" rx="22" fill="#0077FF"/>
  <path fill="#FFFFFF" d="M74.9 62.3h-5.8c-2.2 0-2.9-1.8-6.8-5.7-3.4-3.3-4.9-3.7-5.8-3.7-1.2 0-1.5.3-1.5 2v5.2c0 1.4-.5 2.2-4.2 2.2-6.1 0-12.9-3.7-17.7-10.6-7.2-10.1-9.2-17.6-9.2-19.2 0-.9.3-1.7 2-1.7h5.8c1.5 0 2 .7 2.6 2.2 2.4 7.8 10.5 20.8 10.7 13.3V37.8c-.3-3.9-2.3-4.2-2.3-5.6 0-.6.6-1.3 1.5-1.3h9.1c1.2 0 1.7.6 1.7 2.1v11.5c.2 2.8 1.9 1.7 3.6-.1 4.2-4.6 7.1-11.8 7.1-11.8.4-.9 1-1.7 2.5-1.7h5.8c1.7 0 2.1.9 1.7 2.1-.7 3.4-7.8 13.4-7.8 13.4-.6 1-0.9 1.5 0 2.6.8 1.2 12.9 12.2 6 12.3z"/>
</svg>
