<?xml version="1.0" standalone="no"?>
<!DOCTYPE svg PUBLIC "-//W3C//DTD SVG 20010904//EN"
 "http://www.w3.org/TR/2001/REC-SVG-20010904/DTD/svg10.dtd">
<svg version="1.0" xmlns="http://www.w3.org/2000/svg"
 width="1536.000000pt" height="1024.000000pt" viewBox="0 0 1536.000000 1024.000000"
 preserveAspectRatio="xMidYMid meet">

<g transform="translate(0.000000,1024.000000) scale(0.100000,-0.100000)"
fill="white" stroke="none">
<path d="M7575 8604 c-258 -250 -511 -493 -561 -539 l-90 -84 -78 20 c-43 11
-84 19 -92 17 -11 -3 -344 -285 -666 -566 l-118 -103 -208 169 c-301 245 -373
302 -382 302 -11 0 -107 -78 -271 -222 -487 -424 -561 -489 -805 -707 -51 -44
-100 -81 -110 -81 -11 0 -62 14 -114 30 -52 16 -98 30 -102 30 -7 0 -158 -121
-354 -284 -406 -339 -449 -372 -459 -357 -3 5 -1 12 4 15 5 4 -1 25 -15 49
-13 23 -24 44 -24 47 0 3 17 4 38 2 38 -3 83 14 89 35 2 6 -22 31 -54 55 -56
41 -57 43 -30 46 15 2 27 7 27 11 0 3 -25 31 -56 61 -56 55 -91 107 -80 118 4
3 12 0 18 -6 13 -13 50 -16 61 -6 3 4 -15 32 -42 63 -67 78 -70 90 -22 88 22
0 46 5 55 12 14 12 9 21 -41 82 -31 38 -57 77 -58 86 -1 10 -9 41 -18 68 -9
28 -26 93 -37 145 -26 114 -29 125 -36 117 -3 -3 -16 -52 -29 -109 -13 -56
-33 -130 -46 -163 -16 -43 -19 -60 -10 -63 7 -2 -17 -34 -54 -73 -77 -79 -77
-99 1 -99 24 0 44 -3 44 -7 0 -12 -53 -78 -88 -109 -44 -38 -36 -59 19 -51 22
3 39 2 39 -1 0 -22 -48 -78 -109 -129 -39 -32 -71 -65 -71 -75 0 -16 46 -38
81 -38 11 0 19 -3 19 -6 0 -3 -20 -32 -45 -64 -25 -32 -45 -64 -45 -71 0 -7
-10 -23 -21 -35 -12 -13 -19 -30 -16 -38 5 -14 12 -14 54 -1 26 8 49 13 51 11
14 -14 -40 -85 -122 -159 -53 -49 -96 -93 -96 -98 0 -19 66 -49 108 -49 23 0
42 -3 42 -8 0 -18 -77 -122 -134 -182 -91 -93 -91 -98 -3 -102 l71 -3 -54 -64
c-30 -35 -60 -66 -66 -68 -19 -6 -103 88 -129 145 l-24 52 25 0 c34 0 86 28
82 44 -2 7 -36 41 -75 75 -67 57 -92 89 -61 78 7 -2 21 0 31 5 16 8 13 15 -28
60 -25 27 -45 54 -45 59 0 5 18 9 40 9 64 0 63 23 -1 84 -40 38 -54 59 -55 81
-1 27 -63 284 -71 294 -7 10 -13 -10 -28 -85 -8 -43 -24 -107 -36 -141 -11
-34 -18 -71 -14 -82 4 -15 -7 -30 -50 -67 -30 -26 -55 -53 -55 -60 0 -13 31
-24 73 -24 15 0 27 -3 27 -8 0 -10 -27 -49 -62 -90 -31 -36 -29 -52 5 -52 19
0 16 -6 -23 -43 -25 -23 -61 -54 -80 -68 l-34 -26 27 -17 c14 -10 44 -20 65
-23 l39 -5 -36 -67 c-20 -38 -65 -94 -103 -133 -38 -36 -68 -71 -68 -76 0 -16
50 -32 100 -32 l50 0 -53 -86 c-32 -53 -78 -110 -119 -149 -38 -34 -68 -65
-68 -69 0 -13 50 -30 107 -35 l62 -6 -46 -79 c-27 -46 -80 -112 -125 -158 -43
-43 -78 -85 -78 -93 0 -19 30 -34 85 -41 25 -4 45 -9 45 -11 0 -2 -11 -16 -25
-31 -39 -42 -55 -85 -55 -150 0 -55 -2 -60 -25 -66 -38 -10 -93 -63 -101 -99
-6 -28 -2 -35 30 -63 30 -26 34 -33 20 -38 -13 -5 -15 -15 -11 -45 4 -34 2
-40 -21 -52 -14 -8 -38 -34 -54 -58 -37 -59 -38 -114 -2 -166 25 -37 25 -38 5
-59 -40 -44 -66 -109 -65 -164 1 -29 4 -55 6 -57 3 -3 47 13 99 35 490 211
1285 290 2589 259 736 -18 1646 -18 1795 -1 133 16 205 31 205 42 0 14 -84 38
-285 80 -322 68 -417 92 -513 128 -200 75 -201 152 -3 231 128 51 218 71 571
125 87 14 462 48 668 62 369 24 1208 29 1667 10 380 -15 765 -43 765 -55 0
-17 -193 -84 -307 -107 -238 -47 -398 -82 -428 -94 -27 -11 -28 -13 -10 -20
11 -4 52 -10 90 -14 1385 -129 1977 -242 2520 -481 223 -98 420 -145 815 -195
289 -36 781 -60 1230 -60 301 0 807 23 820 37 21 21 -50 155 -100 190 l-21 15
22 24 c30 32 37 109 14 157 -9 19 -34 48 -56 63 -21 14 -39 28 -39 30 0 2 9
18 20 36 36 60 21 142 -35 187 -15 11 -48 27 -75 36 l-48 16 15 31 c9 17 16
48 16 69 0 55 -46 143 -88 169 -19 12 -35 23 -35 26 0 2 18 13 40 24 59 30 54
54 -27 131 -75 70 -145 154 -174 212 l-19 37 40 0 c46 0 110 23 110 40 0 6
-29 38 -64 71 -54 50 -156 196 -156 222 0 4 18 7 40 7 44 0 90 17 90 34 0 6
-27 37 -59 70 -49 47 -131 173 -131 200 0 3 11 6 24 6 35 0 86 20 86 35 0 7
-24 31 -54 54 -59 46 -96 91 -74 91 7 0 19 4 27 9 12 8 7 18 -27 55 -47 51
-54 76 -19 76 13 0 32 6 43 14 18 14 18 16 -21 55 -21 23 -44 41 -50 41 -6 0
-11 15 -11 33 0 17 -9 66 -21 107 -11 41 -26 101 -33 133 -14 61 -25 64 -35 7
-9 -53 -32 -138 -54 -203 -11 -32 -19 -62 -18 -67 1 -4 -20 -27 -46 -50 -54
-48 -51 -70 9 -70 20 0 34 -5 34 -12 0 -16 -50 -88 -61 -88 -5 0 -13 -10 -20
-21 -13 -25 4 -42 34 -33 36 11 -1 -34 -63 -78 -33 -23 -60 -48 -60 -55 0 -15
58 -43 89 -43 18 0 19 -3 9 -25 -6 -14 -14 -25 -17 -25 -22 0 -136 110 -175
170 -64 97 -65 100 -25 101 46 1 100 22 113 43 9 15 6 22 -19 40 -55 39 -137
121 -161 158 -34 54 -32 64 15 60 53 -5 61 13 21 50 -33 30 -32 43 5 50 36 6
27 35 -32 100 -84 90 -113 128 -113 144 0 11 6 11 27 3 28 -10 53 -6 53 9 0 5
-25 37 -55 71 -59 67 -68 91 -32 91 38 0 67 12 67 27 0 8 -23 41 -52 74 -28
32 -49 62 -45 65 3 3 -1 24 -9 47 -17 49 -49 176 -59 235 -4 23 -10 42 -15 42
-7 0 -12 -15 -50 -169 -11 -46 -27 -100 -36 -119 -11 -26 -11 -37 -3 -43 7 -4
-11 -29 -52 -69 -59 -59 -62 -63 -44 -76 10 -8 34 -14 52 -14 18 0 33 -5 33
-10 0 -14 -44 -82 -63 -98 -20 -17 -10 -52 14 -52 19 0 19 -1 3 -26 -10 -14
-43 -45 -76 -70 l-58 -45 -227 188 c-125 103 -241 199 -259 213 -17 14 -134
109 -260 213 -125 103 -235 187 -244 187 -9 0 -76 -20 -149 -45 -74 -24 -139
-41 -145 -38 -6 4 -119 109 -251 233 -132 124 -321 299 -420 390 -98 91 -222
205 -274 254 -53 48 -106 93 -119 99 -19 9 -50 -4 -219 -89 -108 -54 -199
-100 -203 -102 -4 -2 -99 100 -211 225 -543 609 -856 943 -883 943 -14 0 -170
-145 -491 -456z m643 84 c198 -217 578 -640 712 -793 63 -72 167 -189 231
-261 l117 -130 178 -107 c99 -59 225 -137 282 -173 57 -36 106 -64 108 -61 3
3 -53 93 -124 202 l-129 197 -8 165 c-4 90 -5 166 -3 169 4 4 412 -373 633
-585 314 -300 595 -544 807 -699 32 -24 57 -46 57 -50 -1 -4 0 -11 1 -17 1 -5
3 -17 4 -25 1 -14 96 -83 104 -75 7 7 -52 108 -71 119 -26 16 -97 170 -114
246 -30 140 -39 199 -31 194 4 -3 8 -13 8 -23 0 -10 9 -21 21 -24 17 -5 18 -3
7 11 -17 20 42 -23 251 -187 94 -73 171 -135 171 -138 0 -3 -7 0 -15 7 -12 10
-18 10 -31 -1 -13 -10 -17 -10 -25 2 -6 10 -9 11 -9 1 0 -9 -13 -12 -43 -11
-52 3 -78 -9 -53 -23 9 -5 14 -13 11 -18 -5 -9 26 -63 80 -142 17 -23 37 -59
45 -78 7 -19 21 -45 31 -58 13 -17 15 -30 9 -50 -13 -46 -36 -85 -66 -112 -16
-14 -23 -18 -16 -9 6 9 9 19 5 22 -3 4 1 7 10 7 51 0 -8 38 -225 145 -176 87
-254 132 -286 162 -39 38 -91 63 -129 63 -7 0 -13 -11 -13 -24 0 -26 -30 -43
-51 -30 -7 4 -9 3 -6 -4 4 -5 44 -36 90 -67 45 -31 111 -76 146 -101 35 -24
66 -42 69 -40 2 3 18 -2 35 -10 16 -9 51 -22 78 -30 31 -9 50 -21 54 -34 4
-11 10 -18 15 -15 5 3 12 0 16 -6 4 -8 3 -9 -4 -5 -7 4 -12 2 -12 -4 0 -6 -6
-8 -12 -5 -7 4 -4 -1 7 -9 11 -9 31 -27 45 -40 33 -30 64 -46 89 -46 12 0 21
-5 21 -11 0 -5 -4 -7 -10 -4 -5 3 -10 2 -10 -4 0 -5 4 -11 8 -13 4 -1 18 -20
31 -41 13 -22 28 -34 34 -31 7 4 -6 -11 -28 -32 -25 -24 -49 -39 -65 -39 -22
0 -25 -5 -28 -39 l-3 -38 -42 7 c-23 4 -67 9 -97 10 -39 2 -56 7 -58 18 -2 9
7 17 22 21 34 8 33 17 -8 70 -31 42 -63 135 -81 239 -3 20 -10 37 -14 37 -5 0
-12 -17 -16 -37 -16 -89 -59 -210 -87 -246 -18 -23 -27 -44 -24 -54 5 -12 4
-13 -7 -5 -8 7 -17 9 -20 6 -10 -11 3 -24 24 -24 11 0 19 -7 19 -17 0 -15 2
-16 10 -3 15 23 12 2 -5 -30 -8 -16 -28 -37 -45 -47 -16 -9 -30 -22 -30 -27 0
-6 -7 0 -16 12 -12 17 -25 22 -58 22 -30 0 -48 6 -61 20 -16 18 -16 20 -1 26
26 10 19 28 -26 64 l-42 34 32 8 c44 12 41 35 -8 82 -37 35 -40 40 -25 56 16
18 21 80 6 80 -5 0 -18 3 -28 7 -14 5 -13 1 6 -21 20 -21 22 -29 12 -39 -10
-9 -11 -9 -6 3 3 10 -8 29 -30 50 -39 38 -45 60 -16 60 27 0 51 10 51 22 0 5
-17 30 -38 54 -43 48 -72 124 -98 258 -10 48 -21 86 -25 86 -4 0 -17 -42 -29
-92 -35 -154 -52 -201 -89 -247 -19 -24 -37 -39 -39 -33 -5 16 -118 103 -124
96 -3 -2 -11 4 -19 13 -13 17 -12 17 6 4 11 -7 0 5 -25 29 -25 23 -65 56 -90
73 -25 17 -56 42 -70 55 -27 25 -92 62 -110 62 -6 0 -23 15 -39 32 -47 53 -44
28 6 -53 54 -87 88 -130 97 -122 3 4 6 -2 6 -12 0 -27 73 -136 88 -130 6 2 12
0 12 -6 0 -6 4 -8 9 -4 15 9 23 -13 12 -33 -8 -14 -4 -24 15 -45 13 -14 24
-30 24 -35 0 -5 11 -19 24 -31 14 -13 30 -36 36 -52 7 -15 22 -35 35 -43 31
-21 78 -3 99 38 10 19 14 22 11 9 -7 -26 11 -39 31 -22 12 9 13 9 9 -2 -3 -8
-30 -34 -60 -59 -51 -43 -53 -47 -50 -87 5 -56 12 -68 34 -51 9 7 8 4 -4 -7
-11 -11 -32 -27 -45 -36 -25 -16 -25 -17 -6 -38 11 -11 29 -21 42 -21 31 0 25
-21 -20 -76 -24 -28 -44 -43 -53 -40 -8 3 -12 2 -9 -3 3 -4 -6 -19 -20 -32
-45 -42 -48 -56 -15 -74 17 -8 46 -15 66 -15 19 0 35 -4 35 -9 0 -18 -96 -131
-112 -131 -9 0 -48 59 -48 73 0 4 6 7 13 7 7 0 21 6 31 13 16 12 14 17 -31 65
-27 28 -54 65 -60 82 -10 27 -9 30 8 30 31 0 33 26 4 64 -26 34 -67 153 -80
229 -9 53 -28 42 -40 -22 -6 -31 -14 -49 -19 -44 -5 5 -6 3 -2 -5 13 -22 -14
-109 -45 -149 -33 -41 -34 -67 -3 -71 20 -3 20 -6 9 -38 -6 -19 -30 -54 -52
-77 -39 -40 -46 -67 -18 -67 31 0 24 -23 -20 -66 -26 -24 -60 -47 -76 -51 -22
-4 -29 -10 -25 -22 4 -11 1 -9 -9 4 -15 19 -14 20 12 26 31 6 73 30 73 41 0 3
-33 39 -72 79 -70 69 -72 72 -48 79 24 6 27 14 21 66 0 6 -16 9 -33 8 l-33 -3
33 8 c55 14 62 29 27 58 -94 80 -91 75 -67 84 26 10 28 23 6 41 -37 31 -54 49
-54 58 0 5 6 7 13 4 7 -2 21 2 32 10 20 14 20 15 -7 43 -37 38 -70 118 -72
169 0 23 -4 40 -7 38 -3 -2 -12 21 -19 51 -7 30 -17 55 -21 55 -4 0 -13 -23
-20 -51 -10 -38 -15 -46 -20 -32 -4 10 -8 12 -8 5 -1 -7 -5 -11 -10 -8 -16 10
-7 51 12 50 9 -1 17 1 17 5 0 6 -81 59 -162 106 -27 15 -69 46 -95 69 -61 53
-129 103 -119 88 4 -7 2 -12 -3 -12 -6 0 -11 -7 -11 -16 0 -11 -6 -14 -22 -9
-16 4 -19 3 -9 -3 9 -7 10 -12 2 -16 -16 -10 -24 19 -18 58 5 33 4 35 -78 85
-90 55 -106 59 -125 36 -10 -12 -16 -13 -26 -4 -8 6 -14 9 -14 6 0 -7 89 -119
101 -127 4 -3 40 -35 80 -72 67 -60 137 -114 288 -219 45 -32 58 -36 79 -28
22 9 24 8 11 -7 -14 -17 -5 -29 65 -80 27 -20 28 -23 18 -54 -7 -18 -27 -52
-46 -75 -38 -45 -34 -65 11 -65 31 0 29 -16 -7 -50 -19 -18 -28 -34 -24 -44 4
-11 1 -16 -11 -16 -9 0 -13 -5 -10 -10 4 -6 12 -8 18 -4 7 3 -8 -12 -32 -34
-52 -46 -50 -67 5 -78 l38 -7 -30 -26 c-16 -14 -40 -33 -54 -43 -22 -14 -23
-19 -13 -37 8 -12 9 -22 3 -26 -18 -11 -11 -38 8 -31 17 7 -22 -30 -65 -60
-13 -9 -23 -22 -23 -30 0 -19 40 -44 72 -44 28 0 28 0 14 -29 -23 -43 -65 -90
-96 -106 -26 -13 -29 -12 -56 18 -16 18 -18 23 -5 10 l24 -21 22 26 c13 15 20
29 17 32 -4 3 -12 14 -18 24 -5 11 -18 20 -28 22 -25 4 -45 23 -67 66 -17 33
-17 38 -4 38 27 0 28 28 2 62 -30 39 -53 106 -63 177 -6 49 -6 51 17 51 13 0
56 -11 94 -25 65 -24 71 -25 82 -8 27 36 18 46 -39 45 -16 0 -28 1 -28 3 0 14
14 35 24 35 12 0 34 60 29 77 -2 5 -88 88 -190 184 -103 96 -235 219 -293 275
-125 120 -258 245 -319 301 l-45 40 12 84 c22 153 34 270 29 276 -9 9 -216
-128 -534 -354 -35 -25 -63 -42 -63 -39 0 3 56 117 124 253 105 209 276 602
276 634 0 24 -14 14 -300 -191 -27 -19 -128 -96 -226 -170 -97 -74 -196 -150
-221 -168 l-44 -33 17 33 c9 18 47 89 84 158 186 345 372 709 368 719 -1 5
-55 -25 -118 -67 -188 -126 -371 -252 -440 -304 -35 -26 -72 -48 -82 -48 -9 0
-20 -5 -23 -10 -4 -6 -16 -8 -28 -5 -16 5 -18 4 -8 -3 11 -8 9 -11 -8 -17 -11
-3 -25 -3 -31 0 -5 3 -20 -1 -32 -9 -25 -18 -17 -21 13 -6 10 6 19 9 19 6 0
-2 -39 -26 -87 -52 -49 -26 -128 -70 -178 -99 -171 -99 -208 -118 -200 -105 7
12 253 295 444 512 42 47 82 89 90 92 12 6 12 4 0 -10 -8 -9 -14 -22 -15 -28
0 -6 -2 -16 -2 -23 -1 -6 -10 -19 -19 -29 -23 -22 -25 -50 -4 -53 33 -5 151
-3 165 2 20 8 140 172 220 302 38 61 78 124 90 141 11 18 77 114 145 215 197
293 403 579 415 579 2 0 67 -69 144 -152z m-1058 -871 c0 -2 -12 -14 -27 -28
l-28 -24 24 28 c23 25 31 32 31 24z m-1666 -267 c56 -44 203 -163 326 -266
l224 -186 45 6 c25 3 62 8 81 12 38 6 17 23 521 -401 91 -77 208 -175 260
-218 l94 -79 58 6 c31 3 83 9 115 12 l58 6 244 -163 c143 -95 333 -212 455
-278 116 -62 239 -131 275 -151 81 -47 347 -180 359 -180 5 0 -11 21 -36 48
-45 48 -148 178 -122 154 11 -10 16 -7 30 20 16 32 16 32 -8 45 -28 14 -73 17
-73 5 0 -4 5 -13 12 -20 7 -7 9 -12 6 -12 -3 0 -32 32 -64 72 -32 39 -51 68
-44 63 8 -5 33 -8 57 -6 25 1 43 -2 43 -8 0 -6 19 -9 48 -7 50 4 75 -1 67 -13
-5 -9 32 -7 41 2 4 4 11 7 16 7 5 0 2 -8 -7 -17 -16 -16 -16 -17 1 -30 10 -7
20 -10 23 -5 9 11 33 14 26 2 -4 -6 7 -16 24 -23 17 -7 28 -17 24 -21 -4 -4 0
-4 9 -1 11 5 18 -1 23 -16 4 -12 20 -33 36 -47 16 -13 29 -31 29 -40 0 -19 78
-94 90 -87 21 13 -41 -206 -69 -241 -26 -34 -27 -54 -1 -54 11 0 20 -2 20 -5
0 -20 -45 -87 -70 -105 -38 -27 -38 -38 0 -52 30 -10 31 -11 14 -37 -9 -14
-34 -43 -56 -63 -39 -37 -43 -57 -10 -59 14 0 13 -2 -3 -8 -32 -13 -60 -7 -95
22 -28 24 -36 38 -39 70 -1 4 -12 7 -26 7 -29 0 -34 26 -7 34 9 3 23 15 31 27
11 19 11 21 -2 16 -8 -3 -23 2 -34 11 -25 23 -39 24 -53 7 -7 -8 -19 -15 -26
-15 -8 0 -14 -6 -14 -13 0 -8 -8 -22 -19 -31 -16 -15 -23 -15 -52 -4 -30 13
-34 12 -56 -8 -13 -12 -23 -26 -23 -33 0 -6 -5 -11 -12 -11 -7 0 3 -15 21 -34
30 -31 36 -33 64 -25 44 13 46 12 57 -17 7 -17 7 -31 -1 -42 -10 -16 -10 -16
-5 1 4 14 -1 17 -28 17 -18 0 -47 -5 -64 -11 -28 -10 -30 -13 -21 -32 10 -21
10 -21 -5 -3 -20 25 -20 36 -1 36 7 0 18 8 24 17 7 14 -1 29 -40 71 l-50 55
32 19 31 19 -21 23 c-12 12 -19 25 -16 28 3 3 -3 11 -12 19 -17 13 -17 13 -3
-6 14 -18 14 -19 -2 -6 -15 11 -48 65 -48 78 0 1 8 3 18 3 32 0 32 11 -2 60
-22 32 -41 79 -56 139 -12 50 -26 89 -30 86 -4 -2 -13 -33 -19 -67 -15 -74
-44 -144 -73 -175 -22 -24 -19 -53 7 -53 19 0 19 -4 1 -38 -18 -35 -52 -66
-64 -58 -5 3 -22 -6 -37 -20 -36 -34 -54 -36 -87 -12 -16 11 -28 16 -28 12 0
-3 -8 0 -17 7 -14 12 -16 12 -9 -1 4 -8 0 -6 -8 4 -20 25 -20 46 -1 46 20 0
19 17 -4 46 -21 27 -56 124 -67 187 -3 20 -10 37 -14 37 -4 0 -12 -24 -19 -54
-10 -44 -16 -55 -37 -60 -28 -7 -32 -31 -7 -44 16 -9 16 -12 -1 -36 -9 -15
-20 -25 -24 -22 -7 4 -8 -16 -3 -69 1 -17 3 -18 12 -5 8 11 9 9 4 -10 -4 -14
-23 -41 -42 -62 -23 -23 -33 -41 -28 -50 6 -10 5 -10 -5 -1 -11 10 -11 15 0
28 16 19 10 25 -57 56 -23 11 -55 31 -72 45 -33 27 -36 25 -46 -28 -9 -46 -19
-54 -69 -60 -30 -3 -46 1 -63 16 -28 24 -48 53 -57 84 -6 18 -4 22 13 22 27 0
26 9 -4 51 -14 19 -24 42 -21 52 2 9 1 15 -4 12 -8 -5 -40 98 -40 128 0 28
-19 29 -26 0 -3 -15 -13 -52 -21 -81 -16 -51 -18 -54 -45 -48 -22 4 -28 2 -30
-12 0 -9 -2 -21 -3 -27 -1 -5 -18 -27 -39 -49 -32 -33 -40 -37 -60 -28 -18 8
-25 6 -35 -7 -6 -9 -9 -10 -5 -3 3 8 -9 27 -33 47 -21 19 -33 34 -26 35 6 0
19 7 28 16 15 16 14 20 -22 58 -21 22 -26 30 -11 17 l26 -23 12 22 c15 28 -2
42 -41 37 -20 -2 -26 0 -21 12 3 9 1 12 -6 7 -7 -4 -12 -1 -12 8 0 9 9 16 20
16 24 0 26 22 4 41 -26 22 -51 80 -69 164 -23 110 -23 109 -39 96 -7 -6 -15
-9 -17 -7 -2 2 -16 6 -31 10 -25 6 -28 4 -28 -19 0 -14 7 -28 15 -31 22 -9 18
-32 -6 -39 -20 -7 -20 -8 6 -35 33 -34 29 -64 -16 -121 -34 -43 -37 -59 -10
-59 32 0 32 -14 2 -61 -32 -51 -65 -82 -88 -85 -9 -2 -27 -5 -40 -9 -17 -4
-23 -1 -23 12 0 10 -7 27 -15 37 -18 23 -19 65 -4 86 9 12 10 11 5 -5 -5 -14
0 -12 17 10 19 23 22 33 14 47 -6 9 -7 21 -3 25 5 4 11 2 13 -5 8 -23 54 -34
84 -22 36 15 42 34 19 55 -14 13 -27 15 -52 9 -18 -4 -40 -8 -48 -9 -25 -3
-64 -17 -78 -28 -10 -8 -9 -14 5 -31 18 -20 18 -20 -7 -5 -28 18 -56 55 -65
86 -5 18 -1 22 22 25 19 2 28 8 27 19 -1 12 6 16 23 14 23 -2 23 -1 7 16 -10
11 -31 23 -48 27 -36 10 -56 52 -82 175 -15 71 -34 104 -34 57 0 -23 -10 -26
-28 -8 -9 9 -12 9 -12 0 0 -7 7 -15 15 -18 10 -4 13 -14 9 -33 -25 -111 -38
-150 -64 -183 -35 -43 -38 -68 -10 -68 11 0 20 -5 20 -11 0 -18 -21 -50 -30
-44 -4 3 -6 -4 -3 -15 6 -24 4 -24 -33 -5 -33 17 -55 5 -47 -25 6 -23 23 -26
43 -7 8 6 5 0 -8 -14 -30 -34 -28 -47 9 -57 29 -7 30 -9 13 -22 -13 -11 -16
-11 -10 -2 7 11 -2 12 -46 7 -50 -6 -56 -5 -60 13 -3 11 -1 25 5 31 8 8 -7 30
-56 79 -62 62 -79 85 -59 80 19 -5 53 15 48 28 -4 9 -2 12 5 8 23 -14 3 49
-21 65 -18 12 -22 12 -16 2 11 -18 -49 17 -71 42 -15 16 -14 17 6 17 29 0 61
17 61 33 0 7 -16 25 -36 40 -29 24 -33 31 -23 43 10 12 8 18 -12 32 -13 9 -28
15 -34 14 -5 -2 -7 0 -3 3 4 4 1 20 -7 36 -20 38 -20 39 15 39 37 0 39 18 5
58 -14 17 -34 50 -44 74 -24 52 -61 192 -61 227 0 47 -18 7 -44 -95 -32 -125
-55 -182 -90 -213 -34 -32 -33 -50 4 -58 25 -5 29 -9 24 -27 -3 -11 -19 -35
-36 -52 -16 -17 -28 -36 -26 -42 2 -6 -14 -26 -34 -45 -21 -19 -38 -31 -38
-27 0 5 -8 7 -17 5 -10 -2 -22 -4 -27 -4 -5 -1 1 -9 12 -20 12 -10 22 -26 22
-35 0 -27 32 -57 47 -44 23 19 14 2 -13 -23 -14 -13 -24 -18 -22 -10 3 15 -21
23 -68 21 -17 0 -42 4 -55 8 -23 9 -23 9 -2 16 27 9 38 56 13 56 -10 0 -24 8
-31 18 -13 15 -12 16 3 3 10 -7 25 -11 33 -7 13 5 13 9 3 27 -13 20 -88 66
-88 53 0 -4 -7 -1 -15 6 -21 17 -19 1 3 -25 9 -12 -2 -1 -25 24 -23 26 -39 47
-35 48 4 1 19 4 35 7 23 5 27 12 27 39 0 27 -5 35 -31 44 -17 7 -28 17 -24 22
3 6 0 8 -8 5 -8 -3 -18 0 -23 7 -5 9 -2 10 9 6 9 -3 27 3 41 14 29 23 26 40
-12 82 -14 15 -22 27 -16 27 5 0 33 23 63 50 30 28 59 50 64 50 14 0 44 40 69
90 12 25 24 47 28 50 16 13 48 106 39 115 -22 22 -8 51 23 46 11 -1 45 69 50
104 3 17 3 25 1 19 -2 -6 -15 -16 -29 -23 -18 -8 -23 -8 -18 0 12 20 -34 -10
-154 -98 -63 -47 -130 -94 -149 -105 -33 -20 -34 -20 -54 -2 -29 26 -58 86
-80 166 -24 86 -24 93 3 118 24 22 17 39 -18 44 -11 2 -20 11 -21 22 -3 18 -2
18 6 -1 8 -17 10 -17 10 -3 1 10 10 23 22 30 39 25 104 124 177 271 40 82 74
161 75 177 1 15 5 26 8 24 6 -3 59 105 59 121 0 4 -8 4 -17 1 -10 -4 -2 9 17
28 19 19 37 35 39 35 2 1 49 -35 105 -79z m-224 -33 c0 -2 -12 -14 -27 -28
l-28 -24 24 28 c23 25 31 32 31 24z m-160 -140 c0 -2 -10 -12 -22 -23 l-23
-19 19 23 c18 21 26 27 26 19z m-260 -220 c0 -2 -10 -12 -22 -23 l-23 -19 19
23 c18 21 26 27 26 19z m-60 -50 c0 -2 -12 -14 -27 -28 l-28 -24 24 28 c23 25
31 32 31 24z m-60 -64 c0 -9 -3 -13 -7 -10 -3 4 -16 -1 -27 -10 -15 -13 -14
-10 3 10 29 32 31 32 31 10z m235 -95 c-2 -7 -18 -69 -35 -137 -31 -128 -58
-187 -104 -230 -43 -41 -31 -71 30 -71 13 0 24 -3 24 -6 0 -15 -47 -81 -77
-110 -18 -17 -33 -33 -33 -36 0 -12 45 -17 59 -6 20 13 -55 -59 -92 -89 -25
-21 -25 -23 -11 -52 16 -31 28 -38 39 -22 3 5 -3 12 -12 14 -11 3 -6 5 12 6
l29 1 -39 -40 c-21 -22 -47 -43 -58 -46 -13 -4 -17 -12 -14 -26 3 -11 0 -21
-8 -24 -11 -4 -10 -14 6 -47 10 -23 23 -41 29 -40 20 5 9 -6 -55 -57 -70 -56
-77 -76 -35 -97 14 -7 19 -13 11 -13 -8 0 -11 -7 -8 -20 3 -11 -2 -25 -11 -32
-8 -7 -16 -11 -16 -9 -1 2 -11 1 -24 -3 -13 -4 -19 -12 -15 -19 14 -23 -55 33
-71 58 -16 24 -15 25 2 25 29 0 43 20 30 44 -10 20 -10 20 8 5 18 -14 54 -15
54 -2 0 14 -34 43 -50 43 -9 0 -20 3 -24 7 -13 14 -38 12 -32 -3 11 -28 -4
-13 -29 29 -30 53 -31 57 -5 57 33 0 34 26 2 67 -36 45 -77 172 -68 209 5 17
3 23 -4 19 -6 -4 -10 4 -10 20 0 41 -23 25 -36 -26 -8 -33 -12 -39 -16 -24 -5
18 -6 18 -7 -2 0 -13 3 -23 8 -23 17 0 -37 -152 -63 -179 -14 -15 -26 -33 -26
-40 0 -11 -3 -11 -15 -1 -23 19 -39 7 -18 -15 30 -33 60 -47 67 -30 3 8 -3 16
-12 18 -12 3 -11 5 6 6 12 0 22 -1 22 -4 0 -18 -37 -74 -66 -102 -37 -35 -43
-59 -16 -66 13 -4 11 -5 -6 -6 -16 -1 -26 7 -34 27 -32 74 -75 83 -110 22 -13
-22 -29 -40 -36 -40 -7 0 -10 -4 -7 -10 3 -5 1 -10 -5 -10 -7 0 -9 -7 -5 -17
3 -10 -12 0 -35 22 -22 22 -38 45 -36 52 3 7 2 12 -2 12 -26 -4 -22 5 7 15 19
7 39 20 45 30 9 14 4 23 -31 52 -24 20 -43 40 -43 45 0 6 5 7 10 4 12 -7 30
34 23 53 -3 6 -18 12 -34 12 -18 0 -32 7 -39 20 -9 17 -8 20 13 20 47 0 50 23
10 71 -21 24 -27 35 -15 25 12 -11 22 -14 22 -8 0 18 32 14 65 -8 17 -11 26
-20 21 -20 -5 0 -7 -3 -3 -6 7 -7 90 41 107 61 7 8 21 15 32 15 11 0 48 19 82
43 88 62 95 65 76 42 -14 -17 -13 -18 10 -11 14 4 32 8 41 9 9 1 27 10 40 20
13 9 50 32 81 51 50 30 63 33 107 29 43 -4 50 -2 45 11 -4 10 0 18 10 22 9 3
13 10 10 15 -3 5 0 9 6 9 6 0 9 4 6 9 -3 5 1 14 9 21 8 7 13 16 10 20 -3 5 1
14 8 22 7 7 15 18 16 23 11 35 213 257 247 271 26 11 33 21 39 54 4 22 11 40
16 40 4 0 7 -6 4 -12z m-380 -18 c-3 -5 -20 -19 -38 -30 -32 -22 -32 -22 3 9
37 32 45 37 35 21z m422 -52 c-3 -8 -6 -5 -6 6 -1 11 2 17 5 13 3 -3 4 -12 1
-19z m-559 -66 c-13 -16 -34 -34 -48 -40 -17 -8 -10 2 20 28 53 47 60 50 28
12z m-428 -127 c29 -16 19 -20 -11 -4 -16 8 -27 7 -47 -6 l-27 -16 24 20 c27
25 28 25 61 6z m285 7 c-53 -42 -60 -46 -33 -19 16 15 31 27 35 27 4 0 3 -3
-2 -8z m-205 -42 c8 -5 11 -10 5 -10 -5 0 -17 5 -25 10 -8 5 -10 10 -5 10 6 0
17 -5 25 -10z m-190 -14 c0 -2 -12 -11 -27 -20 l-28 -17 24 20 c23 21 31 25
31 17z m7695 -120 c11 -11 13 -14 3 -7 -15 11 -18 9 -24 -16 -4 -15 -11 -33
-16 -40 -6 -8 -3 -15 11 -23 12 -6 20 -14 20 -18 -4 -22 3 -32 21 -32 11 0 20
6 20 14 0 10 10 14 29 14 35 -1 54 10 44 25 -6 9 122 -76 218 -146 l27 -19
-36 -33 c-33 -30 -35 -34 -22 -51 14 -17 13 -18 -1 -6 -18 14 -83 21 -86 10
-7 -19 -2 -28 14 -28 30 0 83 -24 83 -37 0 -7 -4 -13 -9 -13 -5 0 -8 -11 -8
-25 0 -29 12 -32 41 -8 14 12 13 9 -4 -11 -14 -15 -53 -51 -88 -78 -47 -38
-62 -56 -59 -69 3 -11 1 -17 -4 -13 -13 7 -11 -20 3 -51 16 -34 4 -42 -65 -44
-19 -1 -26 -5 -22 -13 4 -7 -13 7 -36 31 l-43 45 32 8 c48 13 52 36 12 70
l-34 28 32 0 c25 0 32 4 32 19 0 33 -50 72 -86 67 -18 -3 -33 9 -34 27 0 4 8
7 19 7 10 0 24 7 31 15 10 12 7 21 -20 51 -50 58 -70 122 -45 148 9 9 13 16
10 16 -4 0 3 9 16 20 22 18 17 26 -14 21 -5 -1 -5 4 -1 10 5 9 2 10 -9 6 -9
-3 -19 -2 -22 3 -4 6 5 10 19 10 14 0 28 5 32 12 5 8 2 9 -10 5 -10 -4 -15 -3
-11 3 11 17 -10 11 -32 -9 -21 -19 -21 -19 -26 21 -6 47 -16 59 -30 37 -9 -15
-12 -15 -39 0 -15 9 -28 19 -28 23 0 3 18 29 39 56 22 27 37 53 33 58 -13 15
103 -70 123 -90z m-7821 23 c-3 -6 3 -24 15 -40 21 -29 21 -77 0 -64 -5 4 -9
-2 -10 -12 -1 -10 -7 11 -15 46 -11 52 -12 66 -2 73 18 11 20 10 12 -3z m-53
-50 c-5 -13 -10 -18 -10 -11 -1 10 -6 10 -23 1 -16 -7 -14 -3 7 14 35 29 39
29 26 -4z m5136 -6 c-3 -5 2 -14 10 -22 13 -12 14 -11 8 10 -5 18 -4 21 4 9
25 -36 3 -53 -33 -25 -18 13 -15 35 5 35 6 0 8 -3 6 -7z m-5287 -87 c0 -2 -12
-11 -27 -20 l-28 -17 24 20 c23 21 31 25 31 17z m730 -16 c0 -5 -5 -10 -11
-10 -5 0 -7 5 -4 10 3 6 8 10 11 10 2 0 4 -4 4 -10z m4835 -20 c16 -17 16 -20
2 -20 -26 0 -47 11 -47 26 0 20 24 17 45 -6z m2382 -2 c-3 -8 -6 -5 -6 6 -1
11 2 17 5 13 3 -3 4 -12 1 -19z m-3307 -54 c0 -2 -9 0 -20 6 -11 6 -20 13 -20
16 0 2 9 0 20 -6 11 -6 20 -13 20 -16z m-4533 -6 c-3 -8 -6 -5 -6 6 -1 11 2
17 5 13 3 -3 4 -12 1 -19z m-251 -7 c-10 -10 -16 -27 -14 -37 2 -16 -5 -20
-44 -24 -26 -3 -45 -4 -42 -1 8 9 109 80 113 81 2 0 -4 -9 -13 -19z m229 -48
c-10 -15 -29 -40 -43 -55 -20 -22 -23 -30 -13 -42 7 -8 21 -17 32 -19 11 -3 7
-4 -8 -3 -22 1 -29 -4 -31 -21 -2 -12 -9 -26 -15 -32 -13 -10 -67 -23 -67 -15
0 12 27 50 48 67 18 15 22 26 17 48 -8 33 12 59 45 59 12 0 25 10 32 25 6 14
13 23 16 20 3 -2 -3 -17 -13 -32z m6638 -52 c-3 -11 -17 -30 -31 -43 -21 -18
-23 -19 -9 -2 9 11 14 24 10 29 -5 4 -3 5 3 2 7 -4 14 2 17 13 3 11 7 20 10
20 3 0 3 -9 0 -19z m-1816 -46 c0 -31 -58 -25 -86 9 -11 13 -11 19 -1 31 11
13 17 12 50 -6 20 -11 37 -27 37 -34z m-248 1 c-2 -2 -13 8 -23 22 l-19 27 24
-22 c12 -12 21 -24 18 -27z m297 -12 c18 -14 18 -14 -6 -3 -31 14 -36 19 -24
19 6 0 19 -7 30 -16z m-275 -21 c13 -16 12 -17 -3 -4 -10 7 -18 15 -18 17 0 8
8 3 21 -13z m3148 -19 c2 -2 -6 -18 -18 -36 -11 -18 -21 -27 -21 -21 0 11 -52
45 -61 40 -2 -1 5 6 16 15 17 14 67 16 84 2z m-7759 3 c0 -2 -10 -12 -22 -23
l-23 -19 19 23 c18 21 26 27 26 19z m4641 -24 c13 -16 12 -17 -3 -4 -10 7 -18
15 -18 17 0 8 8 3 21 -13z m405 -24 c30 -17 54 -31 54 -32 0 -7 -119 1 -133 9
-15 9 -16 12 -1 32 8 12 18 22 21 22 3 0 30 -14 59 -31z m-3936 -8 c-5 -10
-17 -24 -27 -32 -16 -13 -17 -12 -5 3 11 14 11 16 -6 11 -13 -3 -21 2 -25 16
-6 26 -4 28 37 23 30 -3 34 -7 26 -21z m-1366 -11 c6 -6 4 -15 -4 -25 -11 -13
-10 -15 6 -9 15 5 16 4 5 -4 -11 -8 -8 -11 15 -14 25 -2 29 -8 32 -35 2 -22
-1 -33 -10 -33 -9 0 -9 -3 2 -10 12 -8 10 -10 -10 -10 -15 0 -30 4 -36 10 -11
11 -87 -4 -92 -19 -2 -6 -10 -11 -18 -11 -8 0 -11 -7 -8 -17 3 -10 -2 -7 -10
7 -21 35 -20 40 12 40 41 1 112 36 112 57 0 9 -19 34 -42 55 l-43 37 40 -5
c22 -3 44 -9 49 -14z m5501 -100 c-3 -6 2 -7 12 -4 16 5 16 4 -1 -10 -26 -21
-43 -20 -56 4 -6 11 -18 20 -26 20 -8 0 -12 4 -9 10 4 6 17 4 36 -5 16 -9 29
-13 29 -10 0 2 -22 16 -50 30 -27 14 -50 28 -50 30 0 3 27 -8 60 -25 34 -17
58 -35 55 -40z m115 -45 c28 -14 50 -28 50 -30 0 -5 -99 42 -109 51 -12 11 15
1 59 -21z m-85 -15 c3 -5 2 -10 -4 -10 -5 0 -13 5 -16 10 -3 6 -2 10 4 10 5 0
13 -4 16 -10z m2981 0 l35 0 -16 -30 c-9 -16 -18 -30 -21 -30 -2 0 0 9 6 21 9
16 8 20 -2 18 -7 -2 -26 5 -43 15 -16 9 -22 15 -12 12 10 -3 34 -6 53 -6z
m-8366 -41 c0 -6 6 -7 13 -3 6 4 -5 -11 -27 -34 -23 -24 -46 -39 -56 -37 -10
2 -32 -7 -49 -19 -24 -18 -28 -25 -18 -36 7 -7 -5 -1 -25 14 -35 26 -85 88
-57 70 24 -15 112 -3 144 19 16 12 31 24 33 27 4 10 42 9 42 -1z m7790 -4 c0
-1 -32 -35 -71 -75 -39 -40 -75 -85 -81 -101 -5 -16 -14 -29 -20 -29 -5 0 -6
-4 -3 -10 4 -6 -1 -7 -12 -3 -28 10 -43 24 -59 55 -13 25 -13 28 1 28 9 0 13
-5 10 -10 -4 -6 3 -8 17 -6 13 3 27 5 32 5 5 1 6 17 3 36 -3 19 -3 35 1 35 4
0 29 18 56 40 41 34 55 40 87 38 22 -1 39 -3 39 -3z m-6611 -22 c3 -2 -1 -9
-9 -16 -10 -9 -11 -9 -6 1 5 7 1 12 -11 12 -10 0 -25 5 -33 10 -11 7 -5 8 20
4 19 -4 37 -9 39 -11z m515 1 c3 -8 2 -12 -4 -9 -6 3 -10 10 -10 16 0 14 7 11
14 -7z m683 -16 c-3 -8 -6 -5 -6 6 -1 11 2 17 5 13 3 -3 4 -12 1 -19z m-1707
9 c0 -2 -10 -12 -22 -23 l-23 -19 19 23 c18 21 26 27 26 19z m1077 -73 c0 -19
-2 -18 -21 11 -16 25 -16 25 2 14 10 -6 19 -18 19 -25z m5838 -21 c-18 -17
-18 -17 -6 0 12 15 11 21 -5 40 l-18 22 24 -22 c24 -23 24 -23 5 -40z m715 49
c25 -12 21 -30 -12 -53 -17 -13 -28 -18 -24 -11 4 7 1 12 -7 12 -20 0 -30 29
-16 46 12 15 34 17 59 6z m-7160 -18 c0 -3 -25 -32 -56 -64 l-57 -59 -19 24
c-11 14 -16 30 -12 36 4 7 3 9 -4 5 -6 -3 -13 -2 -16 3 -8 13 40 20 80 11 31
-7 37 -5 56 21 22 29 28 34 28 23z m4321 -12 c-7 -2 -18 1 -23 6 -8 8 -4 9 13
5 13 -4 18 -8 10 -11z m-4911 -7 c0 -21 -44 -59 -49 -43 -2 7 -9 -4 -15 -25
l-11 -38 -30 33 c-16 18 -21 25 -10 16 17 -14 22 -14 33 -2 6 7 12 18 12 24 0
5 5 10 10 10 6 0 10 9 10 20 0 15 7 20 25 20 15 0 25 -6 25 -15z m-580 -80
c-24 -25 -46 -45 -48 -45 -2 0 0 9 3 21 4 13 0 28 -12 42 -14 16 -14 19 -1 9
11 -9 18 -10 23 -2 4 7 12 7 25 0 13 -7 21 -6 30 5 7 8 15 15 18 15 4 0 -14
-20 -38 -45z m7228 32 c17 4 22 1 22 -12 0 -17 1 -17 20 0 11 10 20 16 20 13
0 -2 -12 -15 -27 -29 -14 -13 -23 -18 -19 -11 4 6 3 12 -3 12 -5 0 -11 -4 -13
-8 -1 -5 -14 5 -28 22 -13 17 -18 26 -9 19 8 -7 25 -10 37 -6z m973 -14 c13
-16 12 -17 -3 -4 -17 13 -22 21 -14 21 2 0 10 -8 17 -17z m-7556 -23 c-3 -5
-11 -10 -16 -10 -6 0 -7 5 -4 10 3 6 11 10 16 10 6 0 7 -4 4 -10z m-104 -37
c13 -16 12 -17 -3 -4 -10 7 -18 15 -18 17 0 8 8 3 21 -13z m7179 -27 c0 -2 -6
-9 -14 -15 -11 -9 -16 -9 -22 0 -4 7 -3 9 4 5 6 -3 13 -2 17 4 6 10 15 14 15
6z m-7187 -23 c-7 -2 -19 -2 -25 0 -7 3 -2 5 12 5 14 0 19 -2 13 -5z m6728
-10 c-5 -10 -15 -26 -23 -36 -12 -16 -13 -15 -14 9 -2 18 2 24 12 20 8 -3 14
-1 14 3 0 5 -6 12 -12 14 -7 3 -3 6 10 6 19 1 21 -2 13 -16z m-4838 -25 c21 4
23 -14 2 -22 -14 -5 -45 28 -45 49 1 5 6 1 13 -10 7 -12 20 -19 30 -17z m6707
2 c-30 -42 -34 -43 -58 -10 l-22 29 33 4 c73 9 71 10 47 -23z m-8352 -37 c-15
-2 -42 -2 -60 0 -18 2 -6 4 27 4 33 0 48 -2 33 -4z m78 -19 c14 -10 32 -31 40
-48 14 -28 14 -29 -1 -12 -10 13 -15 15 -15 6 0 -9 -5 -8 -20 5 -11 10 -17 22
-13 28 3 5 -2 16 -12 24 -27 19 -9 16 21 -3z m1600 -16 l29 -33 -32 29 c-31
28 -38 36 -30 36 2 0 16 -15 33 -32z m5463 -25 c21 -24 35 -33 38 -25 5 14 49
16 57 3 4 -5 -3 -7 -14 -4 -11 3 -20 0 -20 -6 0 -6 -3 -10 -7 -9 -30 7 -96
-18 -127 -48 -19 -19 -42 -34 -51 -34 -8 0 -15 -3 -16 -7 -3 -34 -11 -50 -31
-66 -13 -9 -34 -26 -46 -37 -13 -11 -30 -20 -37 -20 -32 0 -45 -12 -39 -36 6
-22 3 -24 -26 -24 -40 0 -92 -37 -109 -78 -10 -23 -18 -28 -40 -27 -15 1 -33
5 -40 9 -8 5 -18 0 -27 -13 -10 -14 -26 -21 -46 -21 -23 0 -29 -4 -24 -16 3
-9 6 -20 6 -25 0 -5 5 -9 10 -9 6 0 10 7 8 16 -2 10 4 19 12 21 13 4 13 3 0
-6 -10 -7 -11 -11 -2 -11 18 0 15 -25 -7 -44 -19 -17 -174 -37 -158 -21 10 11
-23 46 -36 38 -6 -3 -7 -1 -3 6 4 6 20 18 36 26 20 10 27 20 23 34 -11 44 35
82 115 96 41 7 52 17 32 30 -5 3 -10 28 -10 55 0 41 5 55 30 84 43 48 105 71
156 57 52 -15 51 -15 59 17 8 33 52 92 68 92 7 0 4 -5 -6 -11 -9 -5 -24 -24
-34 -42 -14 -28 -14 -30 0 -19 8 7 21 12 29 11 18 -3 68 12 68 21 0 4 19 13
43 20 49 14 95 54 75 64 -7 3 3 4 22 1 24 -3 46 -17 69 -42z m-159 33 c0 -2
-9 -6 -20 -9 -11 -3 -18 -1 -14 4 5 9 34 13 34 5z m-5240 -40 c0 -11 -19 -15
-25 -6 -3 5 1 10 9 10 9 0 16 -2 16 -4z m978 -16 c-7 -10 -14 -17 -17 -15 -4
4 18 35 25 35 2 0 -1 -9 -8 -20z m-1512 -11 c47 -12 115 -66 113 -90 0 -10 -2
-10 -5 -2 -6 13 -18 10 -74 -15 -19 -8 -59 -15 -90 -16 l-55 -1 -3 59 c-4 79
15 90 114 65z m-927 -28 c35 -18 78 -67 68 -77 -2 -3 -12 7 -21 21 l-17 25
-22 -21 c-12 -11 -32 -25 -45 -30 -13 -5 -20 -14 -17 -20 5 -7 -3 -9 -21 -7
-20 2 -30 10 -34 28 -21 81 -21 80 2 90 36 14 66 12 107 -9z m5151 1 c0 -4
-13 -23 -29 -42 l-30 -35 -23 24 c-13 14 -16 19 -6 12 14 -10 19 -8 34 18 16
28 54 44 54 23z m-3230 -16 c0 -2 -8 -10 -17 -17 -16 -13 -17 -12 -4 4 13 16
21 21 21 13z m436 -31 c1 -14 8 -32 15 -41 11 -13 16 -11 43 13 19 17 15 11
-9 -15 -39 -42 -39 -44 -21 -58 11 -8 24 -14 30 -14 12 0 -42 -58 -65 -70 -12
-7 -23 -2 -40 18 l-24 27 26 -23 c31 -28 37 -22 35 36 0 23 3 42 8 42 5 0 1 9
-8 19 -10 11 -23 18 -30 15 -6 -2 -25 10 -41 28 -17 18 -23 27 -14 20 13 -10
21 -9 40 8 33 27 54 25 55 -5z m2124 0 c0 -8 -3 -16 -7 -18 -5 -3 -8 5 -8 18
0 13 3 21 8 18 4 -2 7 -10 7 -18z m-5447 -8 c18 -8 38 -21 46 -30 7 -10 22
-17 32 -17 10 0 24 -10 30 -22 11 -20 10 -22 -3 -10 -13 10 -17 10 -21 0 -3
-10 -8 -11 -26 0 -11 6 -37 12 -56 12 -22 0 -34 4 -30 10 3 6 1 10 -4 10 -15
0 -14 40 2 41 6 1 1 5 -13 9 -17 6 -19 8 -7 9 10 1 32 -5 50 -12z m2054 -41
c49 9 118 -28 155 -84 22 -34 22 -41 1 -37 -10 2 -34 4 -53 5 -37 1 -35 4 17
37 17 11 17 12 -2 26 -11 8 -24 13 -29 10 -32 -20 -138 20 -135 51 0 6 3 5 6
-2 3 -9 16 -11 40 -6z m838 2 c4 4 5 -2 3 -13 -5 -27 -27 -25 -46 3 -14 22
-14 22 11 13 14 -5 28 -7 32 -3z m1479 -57 c-9 -14 -32 -39 -51 -54 -36 -31
-35 -43 4 -58 22 -8 23 -11 10 -29 -7 -10 -25 -28 -39 -40 l-26 -20 -27 36
-27 36 23 16 23 16 -45 38 c-38 32 -41 38 -22 38 12 0 27 8 33 18 11 16 11 16
6 0 -6 -20 6 -23 34 -8 12 7 17 16 13 27 -4 11 -3 14 5 9 7 -4 12 -2 12 5 0
10 3 10 11 2 13 -13 42 -6 33 8 -3 5 6 4 20 -3 25 -11 26 -12 10 -37z m513 17
c-3 -8 -6 -5 -6 6 -1 11 2 17 5 13 3 -3 4 -12 1 -19z m-2865 -5 c6 -7 17 -13
24 -13 20 0 17 -18 -4 -29 -19 -10 -85 24 -90 47 -3 16 55 12 70 -5z m6728 -3
c0 -13 -38 -37 -72 -45 -18 -5 -28 -3 -28 4 0 7 -8 7 -27 0 -20 -7 -25 -7 -17
0 11 12 111 50 132 51 6 0 12 -4 12 -10z m-8581 -34 c31 5 43 1 69 -21 19 -16
36 -43 44 -68 6 -23 14 -45 17 -49 3 -4 27 -2 54 3 41 9 53 8 92 -11 29 -14
52 -34 61 -54 10 -19 11 -26 3 -19 -16 15 -38 -11 -39 -45 0 -12 -6 -25 -14
-28 -8 -3 -16 -13 -19 -23 -4 -16 -13 -18 -58 -14 -30 3 -65 13 -79 22 -14 10
-41 25 -60 35 -41 19 -65 54 -75 110 -4 21 -21 53 -37 72 -27 31 -28 35 -15
54 8 12 14 29 12 38 -1 9 0 11 2 4 3 -8 16 -10 42 -6z m3458 8 c-3 -3 -12 -4
-19 -1 -8 3 -5 6 6 6 11 1 17 -2 13 -5z m5258 -14 c10 -11 16 -20 13 -20 -3 0
-13 9 -23 20 -10 11 -16 20 -13 20 3 0 13 -9 23 -20z m-655 -52 c0 -3 -9 -4
-19 -1 -16 4 -17 8 -8 18 11 12 26 3 27 -17z m-4372 10 c17 -17 15 -38 -3 -38
-8 0 -15 -7 -15 -17 0 -26 -7 -12 -14 30 -7 39 7 50 32 25z m-106 -28 c3 -17
0 -35 -7 -40 -7 -6 -10 -1 -9 18 3 61 9 70 16 22z m5211 23 c-7 -2 -19 -2 -25
0 -7 3 -2 5 12 5 14 0 19 -2 13 -5z m-6555 -52 c9 -5 12 -24 10 -55 l-3 -46
-37 26 c-44 32 -46 39 -15 65 25 21 27 22 45 10z m2578 -22 c21 -17 17 -28
-11 -35 -15 -4 -22 -11 -18 -18 4 -7 1 -7 -7 1 -7 7 -14 25 -14 42 -1 23 3 28
18 25 10 -2 24 -8 32 -15z m1623 14 c-26 -6 -30 -51 -6 -59 21 -7 67 -44 67
-54 0 -4 -10 -6 -22 -6 -13 1 -22 -4 -21 -10 1 -7 -17 -11 -48 -10 -37 1 -50
5 -55 19 -3 9 -12 17 -20 17 -8 0 -12 5 -9 11 10 15 -26 51 -44 44 -14 -5 -14
-4 0 10 19 19 101 43 144 43 17 0 23 -2 14 -5z m102 -40 c13 -16 12 -17 -3 -4
-10 7 -18 15 -18 17 0 8 8 3 21 -13z m1789 7 c18 -12 2 -12 -25 0 -13 6 -15 9
-5 9 8 0 22 -4 30 -9z m-5845 -30 c9 -16 12 -30 7 -30 -4 0 -13 14 -19 30 -6
17 -10 30 -7 30 2 0 10 -13 19 -30z m5672 14 c-16 -8 -25 -20 -21 -26 5 -7 2
-8 -6 -3 -9 5 -11 4 -6 -3 8 -13 36 -16 36 -4 0 4 13 13 29 20 26 11 33 11 55
-3 21 -14 24 -21 15 -36 -5 -11 -14 -17 -20 -14 -5 4 -9 0 -9 -8 0 -8 15 -24
34 -35 28 -17 35 -18 40 -6 3 8 12 11 21 8 9 -4 14 -13 10 -22 -9 -25 23 -64
48 -57 20 5 20 4 2 -4 -52 -24 -109 -36 -100 -21 3 5 -8 4 -25 -1 -32 -12 -39
-26 -15 -35 13 -5 13 -8 -1 -21 -20 -20 -114 -56 -114 -43 0 6 -7 10 -16 10
-12 0 -14 -3 -6 -13 17 -20 -25 -41 -75 -39 -26 0 -48 -5 -57 -14 -18 -17
-105 -46 -118 -38 -21 13 -7 66 27 102 20 20 34 31 33 23 -2 -8 5 -17 15 -19
10 -2 17 2 17 12 0 9 -6 16 -12 16 -7 0 -5 5 5 11 13 7 33 6 74 -6 39 -12 59
-13 66 -6 8 8 4 11 -13 11 -22 0 -22 1 -6 13 14 10 15 17 7 40 -15 39 -14 91
3 130 14 34 79 97 99 97 7 -1 -1 -8 -16 -16z m-3565 -40 c-10 -12 -19 -17 -21
-11 -2 6 1 13 8 15 6 2 9 7 7 11 -3 4 1 8 9 8 10 0 10 -5 -3 -23z m2056 9
l-28 -4 29 -25 c16 -13 35 -24 42 -24 7 0 3 -7 -9 -16 -21 -15 -25 -15 -41 0
-25 23 -55 20 -89 -9 -34 -29 -42 -23 -40 28 1 39 21 54 56 43 9 -3 24 -1 32
4 8 5 29 9 45 8 l30 -1 -27 -4z m-4091 -9 c-3 -3 -12 -4 -19 -1 -8 3 -5 6 6 6
11 1 17 -2 13 -5z m2291 -15 c23 -2 42 -5 42 -9 0 -10 -51 -80 -58 -80 -8 0
-23 39 -37 90 -4 15 -3 20 2 13 5 -7 28 -13 51 -14z m-5751 5 c-3 -3 -12 -4
-19 -1 -8 3 -5 6 6 6 11 1 17 -2 13 -5z m7128 -14 c-3 -5 6 -12 21 -16 19 -5
22 -9 12 -15 -9 -6 -2 -9 20 -9 35 0 45 -23 15 -35 -17 -6 -17 -8 2 -21 11 -9
26 -19 34 -23 24 -14 -22 -67 -66 -77 -21 -4 -42 -6 -48 -4 -5 1 -26 6 -47 10
-35 7 -36 6 -26 -15 8 -19 16 -22 42 -18 l31 4 -25 -17 c-14 -10 -28 -22 -31
-27 -4 -5 -16 1 -27 14 -22 23 -37 27 -108 28 -47 1 -58 19 -47 74 6 29 7 29
14 9 5 -13 18 -23 31 -24 37 -2 42 -3 55 -11 7 -5 21 1 33 13 l20 20 -20 0
c-11 0 -23 6 -26 14 -3 8 -17 22 -31 31 -21 14 -27 14 -42 3 -9 -7 -5 -1 10
14 35 34 89 49 131 37 33 -9 35 -8 59 34 5 9 12 17 15 17 3 0 2 -4 -1 -10z
m531 -12 c12 -14 13 -18 3 -10 -9 6 -18 10 -21 7 -2 -3 -5 2 -5 10 0 19 0 19
23 -7z m-7482 -37 c34 -36 65 -121 58 -159 -4 -17 -7 -21 -10 -10 -3 15 -6 15
-41 0 -21 -10 -46 -25 -55 -35 -19 -19 -31 -23 -21 -7 4 6 -9 10 -32 10 -48 0
-63 21 -68 100 l-5 59 43 13 c23 6 54 21 68 33 24 19 25 23 10 34 -13 10 -13
10 4 2 11 -5 33 -23 49 -40z m2723 3 c-3 -3 -12 -4 -19 -1 -8 3 -5 6 6 6 11 1
17 -2 13 -5z m-1491 -79 c-22 -16 -92 -20 -100 -6 -9 13 12 19 69 20 46 0 48
-1 31 -14z m124 -87 c0 -11 -32 -10 -50 2 -8 5 -11 12 -7 17 4 4 17 2 28 -5
19 -12 19 -11 9 10 -11 22 -10 22 4 4 9 -11 16 -23 16 -28z m5274 -29 c31 -8
41 -8 47 3 7 11 11 10 24 -3 42 -42 -73 -58 -137 -19 -21 12 -38 24 -38 26 0
8 66 4 104 -7z m-121 -6 c-7 -2 -19 -2 -25 0 -7 3 -2 5 12 5 14 0 19 -2 13 -5z
m-3019 -19 c14 -5 14 -8 1 -21 -24 -23 -84 -10 -85 20 0 8 62 10 84 1z m2925
-21 c-11 -13 -11 -17 -1 -20 19 -7 14 -35 -13 -68 l-24 -30 -1 35 c0 32 31
100 46 100 4 0 0 -7 -7 -17z m-6325 -25 c35 -49 15 -60 -49 -28 -22 11 -33 18
-24 16 12 -3 15 1 12 15 -8 28 41 26 61 -3z m3630 -6 c7 -11 76 -14 76 -3 0 4
11 6 25 3 32 -6 32 -20 0 -28 -14 -3 -30 -15 -36 -25 -13 -25 -78 -26 -131 -2
-42 19 -47 29 -20 49 19 15 78 19 86 6z m4530 -28 c20 -8 21 -31 1 -31 -9 0
-14 6 -11 13 3 8 -5 14 -22 17 -21 3 -22 4 -5 6 12 0 28 -2 37 -5z m-7915 -11
c21 -5 16 -8 -28 -20 -52 -13 -77 -10 -66 7 3 5 -5 11 -17 13 -13 2 2 5 32 6
30 0 66 -2 79 -6z m7694 -77 c-10 -13 -20 -22 -22 -20 -4 4 29 44 36 44 2 0
-4 -11 -14 -24z m-7575 -21 c-3 -3 -9 2 -12 12 -6 14 -5 15 5 6 7 -7 10 -15 7
-18z m5742 -42 c-8 -3 -25 -15 -37 -26 -17 -15 -20 -23 -12 -34 9 -10 6 -13
-17 -13 l-28 0 39 40 c21 22 46 40 55 39 13 0 13 -1 0 -6z m1750 -13 c-8 -5
-10 -10 -5 -10 6 0 3 -5 -5 -10 -20 -13 -67 -13 -75 0 -4 6 -16 8 -28 5 -19
-5 -19 -4 3 9 28 17 136 23 110 6z m-153 -122 c-19 -15 -22 -15 -25 -2 -2 9
-1 27 2 40 l7 25 19 -23 c19 -23 19 -23 -3 -40z m-204 -155 c-7 -2 -19 -2 -25
0 -7 3 -2 5 12 5 14 0 19 -2 13 -5z" fill="#2E7D32"/>
<path d="M11110 6860 c0 -15 7 -20 26 -20 27 0 25 14 -7 30 -16 9 -19 7 -19
-10z" fill="#2E7D32"/>
<path d="M10320 6830 c-8 -11 -20 -20 -27 -20 -23 0 -24 -21 -1 -40 13 -11 19
-19 14 -20 -5 0 -1 -8 8 -19 16 -18 18 -17 49 11 17 17 42 34 54 39 23 9 33
34 11 27 -6 -2 -20 4 -30 14 -10 10 -23 16 -28 13 -5 -3 -11 -1 -15 5 -9 15
-19 12 -35 -10z" fill="#2E7D32"/>
<path d="M9231 6778 c22 -35 45 -62 49 -61 5 2 7 -3 5 -10 -3 -6 1 -23 8 -36
11 -22 19 -25 75 -25 34 -1 62 0 62 1 0 9 -89 83 -101 83 -43 0 -106 61 -75
74 6 2 4 5 -5 5 -9 1 -22 8 -29 16 -7 8 -16 15 -21 15 -5 0 10 -28 32 -62z" fill="#2E7D32"/>
<path d="M11014 6814 c3 -8 6 -18 6 -20 0 -3 5 -2 10 1 15 9 12 22 -6 29 -12
5 -15 2 -10 -10z" fill="#2E7D32"/>
<path d="M8616 6688 c10 -14 21 -24 23 -22 3 3 -6 15 -18 27 l-24 22 19 -27z" fill="#2E7D32"/>
<path d="M10930 6647 c41 -43 67 -65 41 -34 -6 8 -9 16 -6 19 3 3 -1 11 -10
18 -8 7 -15 9 -15 4 0 -4 -12 3 -27 17 -16 13 -8 2 17 -24z" fill="#2E7D32"/>
<path d="M11370 6670 c0 -5 5 -10 11 -10 5 0 7 5 4 10 -3 6 -8 10 -11 10 -2 0
-4 -4 -4 -10z" fill="#2E7D32"/>
<path d="M10493 6642 c0 -10 10 -18 24 -18 26 -2 29 6 11 24 -18 18 -37 15
-35 -6z" fill="#2E7D32"/>
<path d="M10850 6636 c0 -3 9 -10 20 -16 11 -6 20 -8 20 -6 0 3 -9 10 -20 16
-11 6 -20 8 -20 6z" fill="#2E7D32"/>
<path d="M10900 6606 c0 -3 9 -10 20 -16 11 -6 20 -8 20 -6 0 3 -9 10 -20 16
-11 6 -20 8 -20 6z" fill="#2E7D32"/>
<path d="M10990 6596 c0 -2 8 -10 18 -17 15 -13 16 -12 3 4 -13 16 -21 21 -21
13z" fill="#2E7D32"/>
<path d="M9411 6568 c2 -13 -3 -33 -9 -45 -10 -19 -10 -28 3 -53 18 -35 37
-46 63 -34 9 4 23 6 31 5 9 -2 12 3 8 13 -6 16 3 20 32 17 8 -2 10 2 6 10 -6
9 -1 10 19 5 17 -4 26 -2 26 5 0 8 5 8 15 -1 11 -9 13 -16 5 -24 -18 -18 -11
-27 12 -15 22 12 21 13 -27 56 -36 31 -56 42 -71 39 -14 -4 -29 3 -44 19 -31
33 -73 34 -69 3z" fill="#2E7D32"/>
<path d="M9646 6451 c-4 -5 -2 -11 3 -13 11 -4 2 -58 -10 -58 -5 0 -6 6 -3 14
4 10 -1 14 -15 13 -11 0 -18 -3 -16 -5 2 -2 0 -15 -6 -29 -7 -18 -5 -28 6 -39
8 -9 15 -13 15 -9 0 3 13 -2 30 -12 20 -11 32 -28 36 -50 3 -18 12 -33 19 -33
9 0 11 -13 8 -42 -3 -32 1 -52 17 -77 19 -30 23 -33 31 -18 7 11 6 24 -1 38
-7 11 -8 24 -4 27 4 4 9 1 11 -5 9 -25 38 -12 61 27 12 22 27 40 33 40 6 0 7
5 4 10 -3 6 3 10 14 10 12 0 21 5 21 11 0 5 5 7 12 3 6 -4 8 -3 4 4 -3 6 -36
31 -72 56 -48 34 -70 44 -82 38 -31 -16 -102 19 -102 50 0 21 13 23 42 7 29
-16 15 5 -22 31 -16 11 -31 16 -34 11z m120 -270 c-3 -5 -15 -7 -26 -4 -28 7
-25 13 6 13 14 0 23 -4 20 -9z" fill="#2E7D32"/>
<path d="M9510 6356 c0 -2 7 -9 15 -16 9 -7 15 -8 15 -2 0 5 -7 12 -15 16 -8
3 -15 4 -15 2z" fill="#2E7D32"/>
<path d="M10800 6035 c0 -21 5 -25 30 -25 33 0 35 3 20 31 -16 29 -50 25 -50
-6z" fill="#2E7D32"/>
<path d="M9490 6021 c0 -10 30 -24 37 -17 3 2 -5 9 -16 16 -12 6 -21 7 -21 1z" fill="#2E7D32"/>
<path d="M10050 5480 c-12 -8 -11 -10 8 -10 12 0 22 5 22 10 0 13 -11 13 -30
0z" fill="#2E7D32"/>
<path d="M5946 6289 c3 -5 14 -9 25 -9 12 0 19 -7 18 -17 0 -11 -3 -13 -6 -5
-2 6 -9 12 -15 12 -24 0 12 -26 39 -28 21 -1 24 1 13 8 -8 5 -11 10 -5 10 15
0 -27 26 -53 33 -12 3 -20 1 -16 -4z" fill="#2E7D32"/>
<path d="M6675 6230 c-3 -6 -3 -19 0 -31 5 -16 10 -18 21 -8 18 15 18 49 0 49
-8 0 -18 -5 -21 -10z" fill="#2E7D32"/>
<path d="M6860 6155 c7 -17 7 -24 0 -20 -6 3 -10 1 -10 -5 0 -6 -4 -9 -9 -6
-5 3 -14 -1 -21 -10 -7 -8 -19 -13 -25 -10 -22 8 -4 -32 31 -71 18 -20 35 -41
37 -46 5 -15 27 1 27 19 0 8 -7 14 -15 14 -8 0 -15 4 -15 10 0 26 113 55 134
34 8 -7 17 -10 21 -6 4 4 5 -8 2 -25 -4 -18 -3 -32 1 -32 27 4 42 -3 42 -21 0
-18 15 -25 42 -21 4 0 5 -6 2 -14 -4 -8 -1 -15 5 -15 21 0 11 31 -14 40 -14 5
-25 12 -25 15 0 4 5 3 10 0 37 -23 -43 66 -86 95 -12 8 -49 34 -83 58 -57 40
-60 41 -51 17z" fill="#2E7D32"/>
<path d="M6221 6126 c-8 -9 -11 -19 -7 -23 9 -9 29 13 24 27 -2 8 -8 7 -17 -4z" fill="#2E7D32"/>
<path d="M5555 6099 c-4 -6 -5 -12 -2 -15 2 -3 7 2 10 11 7 17 1 20 -8 4z" fill="#2E7D32"/>
<path d="M6110 6096 c0 -2 8 -10 18 -17 15 -13 16 -12 3 4 -13 16 -21 21 -21
13z" fill="#2E7D32"/>
<path d="M5462 6058 c7 -19 38 -22 38 -4 0 10 -9 16 -21 16 -12 0 -19 -5 -17
-12z" fill="#2E7D32"/>
<path d="M6920 6001 c0 -20 13 -41 21 -35 14 8 11 31 -6 38 -8 3 -15 1 -15 -3z" fill="#2E7D32"/>
<path d="M6980 5994 c0 -8 -4 -12 -10 -9 -5 3 -10 0 -10 -9 0 -8 -5 -16 -12
-18 -6 -2 -12 -12 -14 -21 -1 -9 2 -15 7 -11 5 3 9 -1 9 -8 0 -8 9 -14 20 -15
11 -1 20 2 20 7 0 5 8 11 18 13 10 3 6 5 -10 6 -21 1 -28 6 -28 22 0 11 4 18
9 15 5 -3 11 5 13 19 3 14 1 25 -3 25 -5 0 -9 -7 -9 -16z" fill="#2E7D32"/>
<path d="M7115 5900 c3 -5 3 -16 -1 -22 -14 -23 -11 -50 7 -61 18 -11 17 -12
-2 -33 l-21 -22 22 -22 c24 -24 20 -41 -5 -20 -9 7 -18 10 -22 6 -3 -3 0 -6 8
-7 8 -1 3 -5 -11 -9 -23 -7 -22 -8 10 -9 26 -1 31 -4 20 -11 -10 -7 -11 -10
-2 -10 7 0 15 7 18 15 4 8 11 12 17 8 6 -4 7 -1 2 8 -8 12 -6 12 8 0 14 -11
17 -11 17 1 0 8 -6 20 -12 27 -11 11 -8 13 18 8 37 -7 107 34 98 57 -5 14 -71
70 -89 76 -5 2 -16 10 -23 17 -16 15 -66 18 -57 3z" fill="#2E7D32"/>
<path d="M7992 5360 c-6 -11 -8 -21 -3 -25 5 -3 13 4 16 16 9 28 2 33 -13 9z" fill="#2E7D32"/>
<path d="M8570 5321 c0 -13 6 -18 18 -16 9 2 21 4 26 4 11 1 -24 30 -36 31 -5
0 -8 -9 -8 -19z" fill="#2E7D32"/>
<path d="M8566 5235 c4 -8 8 -15 10 -15 2 0 4 7 4 15 0 8 -4 15 -10 15 -5 0
-7 -7 -4 -15z" fill="#2E7D32"/>
<path d="M10770 5047 c-22 -9 -23 -11 -6 -14 10 -3 23 0 29 6 16 16 5 20 -23
8z" fill="#2E7D32"/>
<path d="M3942 5030 c-18 -4 -35 -10 -38 -13 -9 -9 80 5 91 14 11 11 -6 10
-53 -1z" fill="#2E7D32"/>
<path d="M3050 4863 c0 -7 0 -15 0 -18 0 -3 3 -5 6 -4 4 0 11 -5 15 -13 5 -7
9 -8 9 -2 0 5 -7 19 -15 30 -8 11 -15 14 -15 7z" fill="#2E7D32"/>
<path d="M7005 4423 c-680 -26 -1173 -84 -1327 -155 -27 -12 -48 -28 -48 -35
0 -31 158 -75 465 -128 543 -94 757 -165 729 -240 -9 -23 -90 -61 -180 -84
-113 -28 -268 -49 -504 -68 -246 -20 -1095 -23 -2170 -9 -749 10 -921 5 -1330
-40 -447 -49 -715 -119 -955 -249 -77 -41 -167 -105 -150 -105 5 0 119 18 254
40 779 125 1265 151 2426 132 1322 -23 1979 -9 2595 53 365 37 689 105 828
173 54 26 102 72 102 97 0 26 -53 76 -109 104 -101 51 -194 77 -641 181 -224
52 -294 86 -270 129 39 73 401 124 1320 187 135 9 247 18 249 20 5 4 -1170 2
-1284 -3z m-309 -100 c-4 -4 -48 -15 -99 -25 -110 -23 -181 -54 -185 -84 -2
-17 7 -26 45 -43 l48 -21 -40 6 c-49 7 -156 42 -170 55 -27 27 80 68 240 93
55 8 111 17 125 19 14 3 29 5 34 6 5 0 6 -2 2 -6z" fill="#5381d1"/>
<path d="M7305 4195 c11 -5 53 -15 567 -130 626 -140 860 -219 942 -316 136
-161 -300 -288 -1304 -379 -582 -52 -1987 -98 -3085 -101 -275 -1 -529 -4
-565 -8 l-65 -6 145 -23 c689 -107 1638 -172 2775 -192 747 -13 3175 -13 3855
0 1297 24 2207 109 2890 268 74 17 64 18 -520 14 -464 -3 -655 -1 -867 12
-235 14 -583 46 -663 61 -14 3 -43 7 -65 11 -119 16 -335 57 -445 83 -190 44
-331 95 -466 166 -115 61 -277 131 -354 153 -19 5 -75 22 -125 36 -242 72
-631 148 -1015 200 -199 27 -684 81 -815 91 -44 3 -95 8 -113 11 -18 2 -169
13 -335 24 -166 11 -320 22 -342 25 -22 3 -35 3 -30 0z m1645 -310 c328 -84
545 -189 596 -286 57 -110 -37 -206 -271 -278 -306 -93 -765 -139 -1475 -146
l-425 -4 210 14 c706 47 1354 143 1592 234 98 38 169 96 179 146 8 44 -17 96
-67 139 -55 46 -204 119 -334 162 -60 20 -112 38 -114 40 -9 8 16 3 109 -21z" fill="#5381d1"/>
<path d="M1643 2769 c-77 -24 -139 -70 -177 -132 -24 -40 -30 -62 -34 -128
-10 -176 50 -237 363 -364 114 -47 146 -95 110 -164 -16 -32 -77 -61 -128 -61
-49 0 -147 28 -194 56 -23 13 -63 47 -90 74 -26 27 -51 50 -55 50 -5 0 -8 -67
-8 -148 l0 -148 63 -12 c34 -6 98 -19 142 -27 103 -21 255 -14 342 15 206 70
278 312 139 467 -50 56 -112 91 -269 153 -116 46 -157 80 -157 129 0 89 140
122 265 62 33 -15 81 -47 107 -70 25 -22 49 -41 52 -41 3 0 6 60 6 134 l0 133
-42 6 c-24 4 -72 13 -108 21 -94 22 -250 20 -327 -5z" fill="#060e06"/>
<path d="M2390 2759 c0 -5 15 -28 33 -51 l32 -40 5 -327 c5 -316 6 -328 29
-378 45 -102 152 -172 291 -194 183 -28 348 28 426 146 55 82 62 139 57 447
-5 260 -4 269 17 313 12 25 31 50 41 56 10 5 19 16 19 24 0 13 -29 15 -180 15
-127 0 -180 -3 -180 -11 0 -6 16 -29 35 -50 l35 -39 0 -298 c0 -332 -2 -345
-69 -389 -45 -30 -141 -32 -188 -3 -67 40 -68 44 -71 354 -2 154 -1 295 3 313
3 19 19 49 35 67 17 19 30 39 30 45 0 8 -59 11 -200 11 -134 0 -200 -3 -200
-11z" fill="#030603"/>
<path d="M3550 2757 c0 -8 11 -24 25 -37 14 -13 29 -40 35 -59 6 -21 10 -188
10 -394 0 -386 -1 -398 -54 -446 -14 -14 -26 -28 -26 -33 0 -4 166 -8 369 -8
l369 0 6 28 c3 15 10 68 16 117 6 50 13 102 15 118 6 39 -9 34 -71 -22 -69
-61 -104 -71 -248 -71 l-116 0 0 334 c0 183 3 347 6 364 4 17 21 49 40 70 18
22 30 42 27 46 -3 3 -96 6 -205 6 -158 0 -198 -3 -198 -13z" fill="#050a05"/>
<path d="M4367 2756 c-3 -7 -8 -51 -12 -97 -3 -46 -8 -103 -11 -126 -7 -56 6
-55 66 1 54 51 105 68 183 64 l52 -3 3 -320 c2 -176 0 -339 -3 -363 -5 -30
-17 -56 -41 -81 -19 -21 -34 -41 -34 -45 0 -3 92 -6 205 -6 177 0 205 2 205
15 0 9 -7 18 -15 21 -8 3 -24 21 -35 39 -19 31 -20 49 -20 389 l0 356 59 0
c77 0 116 -14 178 -66 60 -52 77 -55 69 -16 -5 24 -26 221 -26 243 0 5 -175 9
-409 9 -338 0 -410 -2 -414 -14z" fill="#030704"/>
<path d="M5550 2756 c0 -8 5 -18 10 -21 6 -3 17 -19 25 -35 14 -27 10 -43
-110 -382 -69 -194 -133 -373 -142 -397 -9 -25 -33 -64 -55 -87 -21 -22 -38
-44 -38 -48 0 -3 81 -6 180 -6 99 0 180 4 180 8 0 5 -9 17 -19 26 -38 34 -43
66 -23 131 l18 60 156 3 157 3 16 -53 c21 -72 19 -101 -10 -132 -14 -15 -25
-31 -25 -37 0 -5 82 -9 205 -9 113 0 205 3 205 6 0 3 -17 26 -39 50 -32 37
-50 79 -124 291 -47 137 -116 337 -154 445 l-68 198 -172 0 c-144 0 -173 -2
-173 -14z m284 -588 c-7 -11 -175 -10 -192 1 -11 7 -7 30 23 122 20 63 43 134
53 158 l16 45 52 -159 c29 -88 50 -163 48 -167z" fill="#020503"/>
<path d="M6460 2756 c0 -7 7 -20 17 -27 9 -8 24 -32 34 -54 17 -36 19 -73 19
-395 0 -204 -4 -370 -10 -391 -5 -19 -23 -48 -40 -64 -16 -15 -27 -32 -24 -37
8 -13 344 -10 344 3 0 6 -13 26 -30 45 -16 18 -32 48 -35 66 -3 18 -5 134 -3
258 l3 225 121 -170 c67 -94 163 -230 214 -302 l92 -133 104 0 104 0 0 430 c0
458 1 472 49 514 46 42 32 46 -147 46 -93 0 -172 -3 -175 -6 -4 -4 9 -24 27
-45 44 -48 48 -75 44 -317 l-3 -193 -194 280 -194 281 -158 0 c-128 0 -159 -3
-159 -14z" fill="#020303"/>
<path d="M7680 2757 c0 -8 11 -24 25 -37 14 -13 29 -40 35 -59 13 -47 13 -725
0 -772 -6 -19 -21 -46 -35 -59 -55 -52 -51 -52 288 -48 291 4 316 6 366 26
125 50 177 112 188 224 3 41 1 79 -7 103 -17 52 -76 114 -132 139 l-48 21 48
35 c97 72 122 196 59 300 -27 46 -43 60 -97 88 -84 42 -168 52 -462 52 -183 0
-228 -3 -228 -13z m531 -195 c22 -24 29 -42 29 -73 0 -87 -55 -129 -170 -129
l-60 0 0 121 0 121 86 -3 c82 -4 87 -5 115 -37z m-27 -363 c76 -21 111 -90 87
-169 -19 -63 -58 -83 -168 -88 l-93 -4 0 136 0 136 68 0 c37 0 84 -5 106 -11z" fill="#040608"/>
<path d="M8786 2762 c-3 -5 8 -22 24 -37 17 -16 35 -45 40 -64 6 -21 10 -189
10 -394 0 -380 -2 -400 -49 -441 -51 -45 -46 -46 368 -46 l389 0 5 28 c11 56
30 243 24 248 -3 3 -31 -15 -64 -39 -32 -25 -73 -50 -92 -56 -19 -6 -98 -11
-177 -11 l-144 0 0 125 0 125 123 0 c122 0 125 -1 165 -30 23 -16 44 -30 47
-30 3 0 5 63 5 140 0 77 -3 140 -7 140 -4 0 -25 -12 -47 -27 -37 -26 -47 -28
-163 -31 l-123 -4 0 122 0 122 148 -4 c158 -4 178 -9 251 -69 19 -15 38 -26
43 -23 9 6 3 160 -8 232 l-5 32 -379 0 c-208 0 -381 -4 -384 -8z" fill="#040608"/>
<path d="M9840 2759 c0 -5 15 -28 33 -51 l32 -40 3 -367 c2 -201 0 -381 -3
-399 -3 -18 -19 -48 -35 -66 -17 -19 -30 -39 -30 -45 0 -8 59 -11 200 -11 171
0 200 2 200 15 0 8 -4 15 -10 15 -5 0 -21 17 -35 37 -23 34 -25 47 -25 142 l0
104 45 48 c31 33 47 44 53 36 11 -15 169 -297 197 -352 l20 -40 173 -3 c94 -1
172 1 172 6 0 5 -22 31 -48 58 -45 45 -332 506 -332 533 0 18 240 294 291 335
27 21 46 42 43 47 -8 13 -384 12 -384 -1 0 -6 10 -24 22 -41 l23 -30 -20 -34
c-11 -18 -72 -96 -135 -172 l-115 -138 -3 140 c-4 171 0 194 38 231 53 53 49
54 -170 54 -134 0 -200 -3 -200 -11z" fill="#050709"/>
<path d="M10969 2750 c-1 -11 -2 -23 -3 -27 -1 -5 -6 -48 -10 -98 -4 -49 -10
-100 -13 -112 -8 -34 12 -29 65 16 63 53 109 71 182 71 l61 0 -3 -364 -3 -365
-32 -33 c-18 -19 -33 -39 -33 -46 0 -9 51 -12 200 -12 213 0 226 3 179 46 -47
41 -49 62 -49 429 l0 345 63 0 c73 0 146 -30 191 -79 38 -40 60 -41 52 -3 -6
24 -25 208 -26 240 0 9 -89 12 -410 12 -403 0 -410 0 -411 -20z" fill="#040608"/>
<path d="M12000 2757 c0 -8 9 -22 21 -33 42 -38 44 -49 49 -379 l5 -320 26
-56 c51 -108 132 -166 277 -196 203 -42 395 34 469 185 l28 57 5 325 c5 336 6
346 49 384 46 42 32 46 -154 46 -122 0 -175 -3 -175 -11 0 -6 13 -26 29 -45
40 -45 43 -74 39 -384 -3 -245 -5 -268 -23 -300 -30 -50 -78 -75 -146 -74 -71
1 -115 25 -143 79 -20 37 -21 58 -24 314 -3 294 2 334 48 376 46 41 32 45
-180 45 -161 0 -200 -3 -200 -13z" fill="#05080a"/>
<path d="M13166 2761 c-4 -5 2 -19 13 -30 52 -52 50 -41 53 -451 3 -416 3
-415 -51 -464 -12 -11 -21 -23 -21 -28 0 -4 90 -8 200 -8 215 0 227 3 176 48
-36 31 -48 84 -44 207 l3 110 45 3 45 3 84 -167 c45 -91 92 -175 102 -185 17
-17 35 -19 164 -19 93 0 145 4 145 10 0 6 -15 25 -32 43 -30 30 -208 345 -208
368 0 5 6 9 14 9 30 0 115 90 135 143 26 69 23 184 -7 242 -31 62 -99 119
-173 145 -60 21 -84 23 -350 27 -198 4 -289 2 -293 -6z m504 -179 c89 -44 94
-200 8 -252 -26 -15 -50 -20 -110 -20 l-78 0 0 123 c0 172 -2 167 79 167 43 0
78 -6 101 -18z" fill="#030406"/>
<path d="M3619 1531 c-78 -25 -142 -85 -169 -159 -27 -72 -30 -242 -6 -325 19
-67 69 -127 130 -160 39 -21 55 -22 336 -25 162 -2 392 2 510 8 422 22 512 42
795 178 l160 77 931 3 932 2 6 -35 c4 -20 15 -39 27 -46 23 -12 69 -4 69 11 0
6 122 10 334 10 284 0 335 -2 346 -15 29 -34 84 -7 92 45 l3 25 910 3 c781 2
917 0 961 -13 28 -8 104 -42 169 -74 288 -146 485 -176 1175 -176 406 0 416 0
455 22 50 26 86 65 116 123 21 41 24 58 24 190 0 133 -2 149 -24 190 -30 58
-66 97 -116 123 -39 22 -47 22 -515 21 -707 0 -799 -15 -1149 -188 l-134 -66
-932 0 -933 0 -12 35 c-17 52 -55 69 -86 38 -16 -16 -50 -18 -347 -21 -324 -3
-329 -3 -344 17 -27 39 -74 17 -88 -41 l-7 -28 -933 0 -933 0 -139 69 c-332
164 -435 181 -1128 187 -253 2 -472 0 -486 -5z" fill="#030506"/>
</g>
</svg>
