<svg xmlns="http://www.w3.org/2000/svg" viewBox="0 0 1200 1200" role="img" aria-label="Домик на территории турбазы">
  <defs>
    <linearGradient id="sky" x1="0" x2="0" y1="0" y2="1">
      <stop stop-color="#b8e6f0"/>
      <stop offset=".7" stop-color="#f8e8b6"/>
      <stop offset="1" stop-color="#e8f4de"/>
    </linearGradient>
  </defs>
  <rect width="1200" height="1200" fill="url(#sky)"/>
  <circle cx="965" cy="145" r="80" fill="#f2b84b"/>
  <path d="M0 442c160-88 295-96 438-44 160 58 285 24 430-52 105-55 190-52 332 0v540H0z" fill="#6d8f2a"/>
  <path d="M0 590c160-76 315-70 505-12 185 56 338 20 520-52 70-28 128-32 205-20v460H0z" fill="#2f4f3c"/>
  <g transform="translate(275 365)">
    <ellipse cx="340" cy="585" rx="360" ry="82" fill="#17211d" opacity=".18"/>
    <rect x="100" y="245" width="500" height="355" fill="#fff7ed" stroke="#17211d" stroke-width="14"/>
    <path d="M55 260 350 55l295 205z" fill="#b85f3a" stroke="#17211d" stroke-width="14" stroke-linejoin="round"/>
    <path d="M180 245 350 110l170 135" fill="none" stroke="#f2b84b" stroke-width="18" stroke-linecap="round"/>
    <rect x="290" y="420" width="95" height="180" fill="#2f4f3c" stroke="#17211d" stroke-width="10"/>
    <rect x="150" y="325" width="92" height="82" fill="#67e8f9" stroke="#17211d" stroke-width="10"/>
    <rect x="440" y="325" width="92" height="82" fill="#67e8f9" stroke="#17211d" stroke-width="10"/>
    <path d="M105 600h505" stroke="#8b5e34" stroke-width="28" stroke-linecap="round"/>
    <path d="M640 600c50-70 62-135 35-200 74 45 112 105 112 180" fill="#6d8f2a" stroke="#17211d" stroke-width="10"/>
    <path d="M20 600c56-80 70-155 38-230 82 52 125 122 125 210" fill="#6d8f2a" stroke="#17211d" stroke-width="10"/>
  </g>
</svg>
