<svg xmlns="http://www.w3.org/2000/svg" viewBox="0 0 1200 1200" role="img" aria-label="Однодневный сплав по реке">
  <defs>
    <linearGradient id="sky" x1="0" x2="0" y1="0" y2="1">
      <stop stop-color="#a7dff0"/>
      <stop offset=".62" stop-color="#f7e8b8"/>
      <stop offset="1" stop-color="#dff2dc"/>
    </linearGradient>
    <linearGradient id="water" x1="0" x2="1">
      <stop stop-color="#0e7490"/>
      <stop offset=".52" stop-color="#67e8f9"/>
      <stop offset="1" stop-color="#0f766e"/>
    </linearGradient>
    <linearGradient id="tube" x1="0" x2="0" y1="0" y2="1">
      <stop stop-color="#f8fafc"/>
      <stop offset=".48" stop-color="#b8c2cc"/>
      <stop offset="1" stop-color="#7d8793"/>
    </linearGradient>
  </defs>
  <rect width="1200" height="1200" fill="url(#sky)"/>
  <circle cx="940" cy="155" r="78" fill="#f2b84b"/>
  <path d="M0 390c150-80 305-86 460-28 142 53 255 22 395-54 98-53 218-41 345 18v380H0z" fill="#6d8f2a"/>
  <path d="M0 540c180-72 340-62 520-2 170 57 332 31 510-45 75-32 135-39 200-20v310H0z" fill="#2f4f3c"/>
  <path d="M0 748c215-76 398-58 610 10 182 59 344 43 520-28 60-24 112-30 170-19v489H0z" fill="url(#water)"/>
  <path d="M100 842c150-32 302-12 455 38 182 60 350 43 525-35" fill="none" stroke="#ecfeff" stroke-width="17" stroke-linecap="round" opacity=".58"/>
  <path d="M180 965c110-30 220-25 330 8 115 34 238 26 360-20" fill="none" stroke="#ecfeff" stroke-width="13" stroke-linecap="round" opacity=".34"/>

  <g transform="translate(155 700)">
    <ellipse cx="420" cy="178" rx="360" ry="64" fill="#082f49" opacity=".18"/>
    <path d="M54 104c13-56 65-89 145-89h584c78 0 130 34 151 89-21 56-73 89-151 89H199c-80 0-132-33-145-89z" fill="url(#tube)" stroke="#17211d" stroke-width="11"/>
    <path d="M54 114c41 51 101 77 180 77h545c79 0 133-27 155-78v56c-25 55-80 88-158 91H192c-78-3-135-36-162-91z" fill="#1d4ed8"/>
    <path d="M165 69h610M165 151h610M245 42v212M375 42v212M505 42v212M635 42v212" stroke="#263238" stroke-width="15" stroke-linecap="round"/>
    <path d="M205 50h58M335 50h58M465 50h58M595 50h58M205 213h58M335 213h58M465 213h58M595 213h58" stroke="#f97316" stroke-width="10" stroke-linecap="round"/>
    <circle cx="325" cy="102" r="27" fill="#f8c18c" stroke="#17211d" stroke-width="7"/>
    <circle cx="490" cy="102" r="27" fill="#f8c18c" stroke="#17211d" stroke-width="7"/>
    <circle cx="650" cy="102" r="27" fill="#f8c18c" stroke="#17211d" stroke-width="7"/>
    <path d="M304 135h46M469 135h46M629 135h46" stroke="#17211d" stroke-width="18" stroke-linecap="round"/>
    <path d="M805 85l88-48M849 60l34 50" stroke="#17211d" stroke-width="12" stroke-linecap="round"/>
  </g>

  <g transform="translate(690 470)">
    <path d="M28 230h300" stroke="#51331d" stroke-width="12" stroke-linecap="round"/>
    <path d="M55 190h120M75 155h84M66 155v82M166 155v82" stroke="#51331d" stroke-width="11" stroke-linecap="round"/>
    <path d="M218 200l-28 56h106l-30-56z" fill="#6b341c" stroke="#17211d" stroke-width="7" stroke-linejoin="round"/>
    <path d="M235 191c-30 48 13 72 13 72s47-33 16-81c-5 25-18 30-29 9z" fill="#facc15"/>
    <path d="M254 200c-19 34 8 52 8 52s31-23 11-58c-4 18-12 21-19 6z" fill="#fb7185"/>
  </g>
</svg>
