<svg xmlns="http://www.w3.org/2000/svg" viewBox="0 0 1200 1200" role="img" aria-label="Сплав на катамаране с ночевкой в палатке">
  <defs>
    <linearGradient id="sky" x1="0" x2="0" y1="0" y2="1">
      <stop stop-color="#a7dff0"/>
      <stop offset=".66" stop-color="#f8e5ad"/>
      <stop offset="1" stop-color="#dff2dc"/>
    </linearGradient>
    <linearGradient id="water" x1="0" x2="1">
      <stop stop-color="#0e7490"/>
      <stop offset=".55" stop-color="#67e8f9"/>
      <stop offset="1" stop-color="#0f766e"/>
    </linearGradient>
    <linearGradient id="tube" x1="0" x2="0" y1="0" y2="1">
      <stop stop-color="#f8fafc"/>
      <stop offset=".48" stop-color="#b8c2cc"/>
      <stop offset="1" stop-color="#7d8793"/>
    </linearGradient>
  </defs>
  <rect width="1200" height="1200" fill="url(#sky)"/>
  <circle cx="185" cy="155" r="78" fill="#f2b84b"/>
  <path d="M0 400c160-80 300-84 455-30 130 45 260 18 405-58 95-50 160-52 340 8v530H0z" fill="#6d8f2a"/>
  <path d="M0 545c175-75 335-68 510-14 175 54 338 14 520-54 70-26 130-33 200-24v380H0z" fill="#2f4f3c"/>
  <path d="M0 770c230-78 400-58 595 6 175 58 330 46 520-26 62-24 116-30 170-22v472H0z" fill="url(#water)"/>
  <path d="M135 858c150-28 290-12 430 36 175 60 312 42 490-38" fill="none" stroke="#ecfeff" stroke-width="17" stroke-linecap="round" opacity=".55"/>

  <g transform="translate(680 500)">
    <path d="M45 320 220 64l178 256z" fill="#f2b84b" stroke="#17211d" stroke-width="11" stroke-linejoin="round"/>
    <path d="M220 64 398 320H252z" fill="#b85f3a" stroke="#17211d" stroke-width="11" stroke-linejoin="round"/>
    <path d="M174 320 220 196l50 124z" fill="#2f4f3c" stroke="#17211d" stroke-width="9" stroke-linejoin="round"/>
    <path d="M38 320h420" stroke="#17211d" stroke-width="12" stroke-linecap="round"/>
    <path d="M63 320 25 370M430 320l42 50" stroke="#17211d" stroke-width="8" stroke-linecap="round"/>
    <path d="M490 262h110M508 228h74M500 228v84M590 228v84" stroke="#5b3a21" stroke-width="11" stroke-linecap="round"/>
    <path d="M496 370l-28 55h102l-30-55z" fill="#6b341c" stroke="#17211d" stroke-width="7" stroke-linejoin="round"/>
    <path d="M514 362c-30 48 13 72 13 72s47-33 16-81c-5 25-18 30-29 9z" fill="#facc15"/>
    <path d="M532 371c-19 34 8 52 8 52s31-23 11-58c-4 18-12 21-19 6z" fill="#fb7185"/>
  </g>

  <g transform="translate(145 785)">
    <ellipse cx="370" cy="152" rx="338" ry="60" fill="#082f49" opacity=".18"/>
    <path d="M55 90c12-48 56-76 122-76h520c68 0 115 29 132 76-18 48-65 76-132 76H177c-66 0-110-28-122-76z" fill="url(#tube)" stroke="#17211d" stroke-width="10"/>
    <path d="M55 99c34 44 84 66 150 66h490c66 0 110-23 133-67v48c-23 47-70 76-137 76H174c-67 0-116-29-140-76z" fill="#1d4ed8"/>
    <path d="M145 60h545M145 138h545M220 37v180M335 37v180M450 37v180M565 37v180" stroke="#263238" stroke-width="14" stroke-linecap="round"/>
    <path d="M178 43h48M293 43h48M408 43h48M523 43h48M178 179h48M293 179h48M408 179h48M523 179h48" stroke="#f97316" stroke-width="9" stroke-linecap="round"/>
    <circle cx="310" cy="88" r="24" fill="#f8c18c" stroke="#17211d" stroke-width="7"/>
    <circle cx="480" cy="88" r="24" fill="#f8c18c" stroke="#17211d" stroke-width="7"/>
    <path d="M292 116h42M462 116h42" stroke="#17211d" stroke-width="17" stroke-linecap="round"/>
    <path d="M725 68l86-46M768 45l35 48" stroke="#17211d" stroke-width="12" stroke-linecap="round"/>
  </g>
</svg>
